<?xml version="1.0" encoding="utf-8"?>
<!-- Generator: Adobe Illustrator 21.0.0, SVG Export Plug-In . SVG Version: 6.00 Build 0)  -->
<svg version="1.1" id="Layer_1" xmlns="http://www.w3.org/2000/svg" xmlns:xlink="http://www.w3.org/1999/xlink" x="0px" y="0px"
	 viewBox="0 0 1417.3 1417.3" style="enable-background:new 0 0 1417.3 1417.3;" xml:space="preserve">
<g>
	<path d="M727.4,168.7C634.5,168.7,559,244.2,559,337s75.5,168.4,168.4,168.4S895.8,429.9,895.8,337S820.3,168.7,727.4,168.7z
		 M727.4,497c-88.2,0-159.9-71.7-159.9-159.9s71.7-159.9,159.9-159.9S887.3,248.9,887.3,337S815.6,497,727.4,497z"/>
	<path d="M727.4,156.2c-99.7,0-180.9,81.2-180.9,180.9s81.2,180.9,180.9,180.9S908.3,436.8,908.3,337S827.1,156.2,727.4,156.2z
		 M727.4,513.7c-97.4,0-176.7-79.2-176.7-176.7S630,160.4,727.4,160.4S904.1,239.6,904.1,337S824.8,513.7,727.4,513.7z"/>
	<path d="M727.4,134.3c-111.8,0-202.8,91-202.8,202.8s91,202.8,202.8,202.8s202.8-91,202.8-202.8S839.2,134.3,727.4,134.3z
		 M727.4,531.3c-107.1,0-194.3-87.2-194.3-194.3s87.2-194.3,194.3-194.3S921.7,229.9,921.7,337S834.5,531.3,727.4,531.3z"/>
	<path d="M727.4,106.4c-127.2,0-230.7,103.5-230.7,230.7s103.5,230.7,230.7,230.7S958.1,464.2,958.1,337S854.6,106.4,727.4,106.4z
		 M727.4,559.2c-122.5,0-222.2-99.7-222.2-222.2s99.7-222.2,222.2-222.2S949.6,214.5,949.6,337S849.9,559.2,727.4,559.2z"/>
	<path d="M656.2,332.3c-0.1-1.5-0.4-2.9-0.9-4.2c-1.1-3.3-2.8-6.3-5.3-8.8c-1.4-1.4-2.9-2.7-4.6-3.7c-3.4-2.1-7.1-3.2-11.1-3.3
		c-1.8-0.1-3.7,0-5.5,0.4c-2.5,0.5-4.9,1.4-7.1,2.7c-2.5,1.5-4.7,3.4-6.5,5.8c-1.2,1.6-2.1,3.4-2.9,5.2c-0.8,2-1.7,3.7-1.7,6.3
		c0,0.1,0,21.8,0,32.5c4.1,0,8.1,0,12.2,0c0-0.4,0-0.7,0-1c0-9.5,0-19.1,0-28.6c0-0.7,0-1.5,0.2-2.2c0.6-2.8,1.9-5.1,4.3-6.8
		c2.3-1.6,4.8-2.3,7.6-1.9c2.3,0.3,4.3,1.3,5.9,2.8c2.2,2.1,3.3,4.7,3.3,7.8c0,9.6,0,19.2,0,28.8c0,0.3,0,0.7,0,1
		c1.4,0.1,11.5,0.1,12.2-0.1c0-0.3,0-0.6,0-0.9c0-9.7,0-19.4,0-29.1C656.3,334,656.2,333.1,656.2,332.3z"/>
	<path d="M787.9,352.7c-4.2-0.9-7.2-4.4-7.2-8.7c-0.1-6.2,0-12.5,0-18.7c0-0.2,0-0.4,0.1-0.7c1.2,0,8.9,0,10,0
		c0.2-1.6,0.1-10.3-0.1-11c-3.2,0-6.5,0-9.8,0c0,0-0.1,0-0.1,0c0,0,0,0-0.1-0.1c0-3.3,0-6.6,0-10c-4.1,0-8.1,0-12.2,0
		c0,0.3,0,0.6,0,0.9c0,13,0,26,0,39.1c0,1.1,0,2.1,0.1,3.2c0.3,2.1,0.8,4.1,1.7,6c1.2,2.7,2.9,5,5.1,7c2.1,1.9,4.4,3.3,7.1,4.2
		c1.5,0.5,3,0.9,4.6,1.1c1.4,0.2,2.8,0.1,4.2,0.1c0-4.1,0-8.1,0-12.2c-0.4,0-0.8,0-1.2,0C789.3,352.8,788.6,352.8,787.9,352.7z"/>
	<path d="M691.6,313.1c-14-3.6-28.5,4.2-32.5,18.8c-3.8,13.7,3.8,28.2,17.9,32.6c13.8,4.3,28-3.3,32.8-15.9c-4.7,0-9.4,0-14.1,0
		c-4.5,4.6-9.8,6-15.9,3.9c-4.1-1.4-7.6-5.4-8.2-8.2c13.2,0,26.3,0,39.4,0C713.8,331.1,706,316.9,691.6,313.1z M671.6,333.4
		c1.5-4.3,6.8-9.2,14-8.9c6,0.3,10.9,4.4,12.5,8.9C689.2,333.4,680.4,333.4,671.6,333.4z"/>
	<path d="M740,312.3c-14.8,0-26.7,12-26.7,26.7c0,14.8,12,26.7,26.7,26.7c5.9,0,11.4-1.9,15.8-5.2v4.3h10.9V339l0,0c0,0,0,0,0,0
		C766.7,324.2,754.7,312.3,740,312.3z M740,353.4c-7.9,0-14.4-6.4-14.4-14.4c0-7.9,6.4-14.4,14.4-14.4c7.9,0,14.4,6.4,14.4,14.4
		C754.3,346.9,747.9,353.4,740,353.4z"/>
	<path d="M817.4,312.3c-14.8,0-26.7,12-26.7,26.7c0,14.8,12,26.7,26.7,26.7s26.7-12,26.7-26.7C844.1,324.3,832.2,312.3,817.4,312.3z
		 M817.4,353.4c-8,0-14.4-6.4-14.4-14.4c0-8,6.4-14.4,14.4-14.4c8,0,14.4,6.4,14.4,14.4C831.8,347,825.4,353.4,817.4,353.4z"/>
	<path d="M1363.2,469.8c-34.8-82.2-84.5-156-147.9-219.3C1152,187.1,1078.2,137.4,996,102.6c-85.1-36-175.4-54.2-268.6-54.2
		s-183.5,18.2-268.6,54.2c-82.2,34.8-156,84.5-219.3,147.9S126.3,387.6,91.6,469.8c-34.9,82.5-53.1,170-54.2,260.1H36v196.2
		c-6.1-4.3-12.5-9-16.2-12L0.1,938.3c7.3,5.9,25.7,19.3,35.8,24.7v93.7c-10.5,5.6-29.3,19.6-35.8,24.9l19.6,24.2
		c3.9-3.2,10.2-7.9,16.2-12.1v214.9c0,33.1,26.9,60.1,60.1,60.1h1261.4c33.1,0,60.1-26.9,60.1-60.1V738.4
		C1417.4,645.3,1399.2,554.9,1363.2,469.8z M54.3,746.9v-8.5c0-90.9,17.8-179,52.9-262c33.9-80.1,82.4-152.1,144.2-213.9
		c61.8-61.8,133.8-110.3,213.9-144.2c83-35.1,171.1-52.9,262-52.9s179,17.8,262,52.9c80.1,33.9,152.1,82.4,213.9,144.2
		c61.8,61.8,110.3,133.8,144.2,213.9c35.1,83,52.9,171.1,52.9,262v269.2c-3.3,2-6.5,4-9.7,6c-36.6,22.7-75.5,46.8-161.9,65.7
		c8-25.5,16.2-62.7,29.8-134.3c23.1-122,31.1-277.9,31.2-279.4l0-0.2c0-78-14.9-153.7-44.4-225c-28.4-68.8-69.1-130.6-121-183.7
		c-51.8-53.1-112.2-94.8-179.5-123.9c-68.7-29.8-141.7-45-216.9-45.4v0c-1,0-1.9,0-2.9,0v0C650,87.8,577.1,103,508.4,132.8
		c-67.2,29.1-127.6,70.8-179.5,123.9c-51.8,53.1-92.5,114.9-121,183.7c-29.4,71.3-44.4,146.9-44.4,225l0,0.2
		c0.1,1.6,8.1,157.4,31.2,279.4c13.6,71.6,21.8,108.8,29.8,134.3c-86.5-18.9-125.4-43-161.9-65.7c-3.2-2-6.4-4-9.7-6V746.9H54.3z
		 M947.4,1126.7c-1.9,45.5-19.3,67.1-40.2,81.2c18-16.4,29.5-40.2,30.9-80.8C941.3,1127,944.4,1126.9,947.4,1126.7z M876.9,1218.2
		c-30.6,15.8-96.2,21.8-145.3,22.1c-1.6,0-3.3,0-4.9,0s-3.3,0-4.9,0c-49-0.4-114.6-6.3-145.3-22.1c-30.9-16-50.7-37.1-52.7-90.7
		c59,2.3,126.1,3.6,202.9,3.6c76.8,0,143.9-1.3,202.9-3.6C927.6,1181.1,907.8,1202.2,876.9,1218.2z M515.3,1127.1
		c1.5,40.7,12.9,64.4,30.9,80.8c-21-14.1-38.3-35.7-40.2-81.2C509,1126.9,512.1,1127,515.3,1127.1z M497.4,1126.4
		c2.2,56.5,26.6,80.8,62.5,99.4c18.5,9.6,51.5,15,76,17.9c28.2,3.3,61.3,5.2,90.8,5.2c29.5,0,62.6-1.9,90.8-5.2
		c24.5-2.9,57.5-8.3,76-17.9c35.9-18.5,60.3-42.9,62.5-99.4c113.9-5.3,195.5-14.6,256.3-26.4c-2.9,7-6,13.5-9.6,20.5
		c-2.2,4.3-4.4,9.4-6.7,14.9c-16.2,37.6-43.4,100.5-150.1,118.7c-117.3,20-301.2,22.4-319.1,22.6c-17.9-0.2-201.9-2.6-319.1-22.6
		c-106.8-18.2-133.9-81.1-150.1-118.7c-2.3-5.4-4.5-10.5-6.7-14.9c-3.5-7.1-6.6-13.6-9.6-20.5
		C301.9,1111.7,383.5,1121.1,497.4,1126.4z M726.7,1114.1c-251.7,0-398.8-13.4-492.5-32.7c-8.3-25.2-16.7-62.1-31-137.9
		c-22.8-120.1-30.8-273.4-31.1-278.2c0-24.7,1.5-49.3,4.6-73.5h1100.1c3,24.2,4.6,48.7,4.6,73.5c-0.2,4.8-8.3,158.1-31.1,278.2
		c-14.4,75.8-22.7,112.6-31,137.9C1125.5,1100.6,978.4,1114.1,726.7,1114.1z M177.8,583.3c6.7-48,19.4-94.7,38-139.7
		c28-67.8,68.1-128.7,119.2-181c51.1-52.3,110.5-93.4,176.8-122c68.1-29.5,140.4-44.5,215-44.7c74.5,0.2,146.9,15.2,215,44.7
		c66.2,28.7,125.7,69.7,176.8,122c51.1,52.3,91.2,113.2,119.2,181c18.6,44.9,31.3,91.7,38,139.7H177.8z M1357.4,1351.6H96
		c-23.8,0-43.1-19.3-43.1-43.1v-280.9c0.3,0.2,0.5,0.3,0.8,0.5c39.2,24.3,81,50.2,177.5,70c3.6,9.2,7.5,17.3,12,26.3
		c2.1,4.1,4.1,8.9,6.5,14.4c16.9,39.2,45.2,104.7,156.5,123.7c115.5,19.7,295,22.4,319.2,22.7l2.7,0v0c24.2-0.3,203.7-3,319.2-22.7
		c111.3-19,139.6-84.5,156.5-123.7c2.4-5.5,4.4-10.3,6.5-14.4c4.5-9,8.3-17.1,12-26.3c96.4-19.8,138.3-45.7,177.5-70
		c0.3-0.2,0.5-0.3,0.8-0.5v280.9C1400.5,1332.2,1381.1,1351.6,1357.4,1351.6z"/>
	<path d="M302.3,1133.1c0,23,12.8,47.6,35.3,67.4c22.5,19.9,50.7,31.3,77.3,31.3c2.7,0,4.9-1.1,6-3c0.7-1.1,1.6-3.5-0.2-6.9
		c-2.8-5.6-12.8-31.3-16.7-46.8c-2.7-10.9-4.8-24.8-5.8-32.1c-0.6-4-3.9-7-7.9-7.2c-11.5-0.5-42.5-2.2-83.1-8.7l-0.1,0
		c-2.4-0.5-3.6,0.5-4.2,1.4c-0.5,0.7-0.7,1.5-0.7,2.4c0,0.3,0,0.6,0,0.9C302.3,1132.3,302.3,1132.7,302.3,1133.1z M308,1133
		c40.1,6.3,70.7,8,82.1,8.5c1.3,0.1,2.4,1,2.5,2.3c1,7.4,3.2,21.5,5.9,32.7c4,16.2,14.1,42,17.1,48c0.4,0.9,0.4,1.3,0.4,1.4
		c-0.1,0.1-0.4,0.3-1.2,0.3c-25.2,0-52.1-10.9-73.5-29.9c-20.9-18.5-33.3-42.1-33.3-63.2C308,1133.1,308,1133,308,1133z"/>
	<path d="M424.3,1177c0.9,4.3,4.5,7.5,8.9,7.8l39.7,2.7c0.2,0,0.3,0,0.5,0c2.1,0,4.1-0.9,5.4-2.6c1.4-1.8,1.9-4.1,1.2-6.3l-8.1-26.9
		c-1.2-4-4.9-7-9.1-7.3l-35.8-2.6c-2.4-0.2-4.6,0.8-6.2,2.5c-1.6,1.8-2.2,4.2-1.7,6.5L424.3,1177z M425,1148.1
		c0.2-0.3,0.8-0.7,1.6-0.6l35.8,2.6c1.9,0.1,3.5,1.4,4.1,3.3l8.1,26.9c0.2,0.5-0.1,0.9-0.2,1.1c-0.2,0.2-0.5,0.5-1,0.5l-39.7-2.7
		c-1.9-0.1-3.4-1.5-3.8-3.3l-5.2-26.1C424.4,1149,424.8,1148.4,425,1148.1z"/>
	<path d="M435.1,1190.6c-1.8-0.1-3.5,0.6-4.6,2c-1.1,1.4-1.5,3.2-1,4.9h0l7.7,27.6c1.3,4.7,5.3,8.1,10.1,8.6l38,4.3
		c0.3,0,0.6,0.1,1,0.1c2.5,0,4.9-1.1,6.5-3.1c1.8-2.2,2.4-5.2,1.5-7.9l-8.2-25.3c-1.5-4.6-5.6-7.8-10.4-8.2L435.1,1190.6z
		 M480.6,1203.6l8.2,25.3c0.3,0.9,0.1,1.9-0.5,2.6c-0.6,0.7-1.5,1.1-2.4,1l-38-4.3c-2.5-0.3-4.6-2-5.3-4.5l-7.6-27.4l40.1,3
		C477.7,1199.5,479.8,1201.2,480.6,1203.6z"/>
</g>
</svg>
