<?xml version="1.0" encoding="utf-8"?>
<!-- Generator: Adobe Illustrator 21.0.0, SVG Export Plug-In . SVG Version: 6.00 Build 0)  -->
<svg version="1.1" id="Layer_1" xmlns="http://www.w3.org/2000/svg" xmlns:xlink="http://www.w3.org/1999/xlink" x="0px" y="0px"
	 viewBox="0 0 1417.3 378.3" style="enable-background:new 0 0 1417.3 378.3;" xml:space="preserve">
<g>
	<path d="M277.2,191c0-5.3-0.6-10.7-1-16c-0.6-8.8-2.7-17.4-5.4-25.8c-6.5-20.3-17.3-38-31.9-53.5c-8.3-8.7-17.6-16.1-27.9-22.4
		c-20.6-12.7-43-19.3-67.2-20.2c-10.9-0.4-22.8,0.2-33.4,2.4c-15.3,3.2-29.9,8.6-43.3,16.7c-15.3,9.2-28.6,20.7-39.4,34.9
		C20.3,117,15,127.6,10.3,139C5.3,151.2,0,161.6,0,177c0,0.8,0,132.1,0,197.1c24.6-0.1,49.2-0.1,74.1-0.2c0-2.5,0-4.3,0-6.2
		c0-57.8,0-115.7,0-173.5c0-4.5,0.2-9,1-13.4c3.4-17,11.8-31,25.9-41.1c13.7-9.8,29-14.1,46-11.7c13.9,2,25.9,7.6,35.9,17.2
		c13.4,12.8,20.1,28.8,20.1,47.3c0.1,58.4,0,116.7,0,175.1c0,2,0.1,4,0.1,6c8.4,0.9,70,0.6,74-0.3c0-1.8,0-3.7,0-5.6
		C277.3,308.8,277.3,249.9,277.2,191z"/>
	<path d="M1088.6,300.1c-4.3-0.3-8.7-0.3-12.9-1.2c-25.2-5.5-43.4-26.5-43.8-52.9c-0.5-37.9-0.1-75.7-0.1-113.6
		c0-1.3,0.2-2.6,0.4-4.1c7.1,0,53.9,0.2,60.5-0.2c1-9.6,0.6-62.8-0.5-66.6c-19.7,0-39.5,0-59.3,0c-0.2,0-0.3-0.1-0.5-0.2
		c-0.1-0.1-0.2-0.3-0.7-0.8c0-19.9,0-40.1,0-60.4c-24.7,0-49.3,0-74,0c0,1.9,0,3.8,0,5.7c0,79,0,158,0,237.1
		c0,6.4,0.1,12.8,0.9,19.2c1.6,12.8,5,25,10.4,36.7c7.5,16.3,17.7,30.4,31,42.4c12.6,11.4,27,19.9,42.9,25.8
		c8.9,3.3,18.2,5.2,27.6,6.5c8.5,1.2,16.8,0.5,25.4,0.9c0-25,0-49.3,0-74.1C1093.4,300.1,1091,300.2,1088.6,300.1z"/>
	<path d="M491.1,58.9C406.2,36.7,318.3,84.4,293.6,173c-23.2,82.9,22.8,171.3,108.7,198c83.9,26,169.9-19.8,198.9-96.6
		c-28.7,0-57.3,0-85.6,0c-27.5,27.8-59.7,36.2-96.6,23.5c-24.9-8.5-45.8-32.9-49.6-49.8c79.9,0,159.7,0,239.5,0
		C625.9,167.7,578.6,81.7,491.1,58.9z M369.7,182.1c9.2-26.3,41.4-56.1,84.8-54c36.2,1.7,66.2,26.6,76,54
		C476.6,182.1,423.1,182.1,369.7,182.1z"/>
	<path d="M784.9,53.6c-89.6,0-162.3,72.7-162.3,162.3s72.7,162.3,162.3,162.3c35.9,0,69-11.7,95.9-31.4v26.1h66.4V216.1h0
		c0-0.1,0-0.1,0-0.2C947.2,126.3,874.6,53.6,784.9,53.6z M784.9,303.2c-48.2,0-87.3-39.1-87.3-87.3c0-48.2,39.1-87.3,87.3-87.3
		c48.2,0,87.3,39.1,87.3,87.3C872.2,264.1,833.1,303.2,784.9,303.2z"/>
	<path d="M1255.2,53.8c-89.6,0-162.2,72.6-162.2,162.2s72.6,162.2,162.2,162.2c89.6,0,162.2-72.6,162.2-162.2
		S1344.7,53.8,1255.2,53.8z M1255.2,303.4c-48.3,0-87.4-39.1-87.4-87.4s39.1-87.4,87.4-87.4s87.4,39.1,87.4,87.4
		S1303.4,303.4,1255.2,303.4z"/>
</g>
</svg>
