<svg width="1417.3" height="578.3" xmlns="http://www.w3.org/2000/svg">
 <g>
  <title>background</title>
  <rect fill="#f2612c" id="canvas_background" height="1316.32392" width="3223.15042" y="-1" x="-1"/>
 </g>

 <g>
  <title>Layer 1</title>
  <g id="svg_1">
   <path id="svg_2" d="m277.2,191c0,-5.3 -0.6,-10.7 -1,-16c-0.6,-8.8 -2.7,-17.4 -5.4,-25.8c-6.5,-20.3 -17.3,-38 -31.9,-53.5c-8.3,-8.7 -17.6,-16.1 -27.9,-22.4c-20.6,-12.7 -43,-19.3 -67.2,-20.2c-10.9,-0.4 -22.8,0.2 -33.4,2.4c-15.3,3.2 -29.9,8.6 -43.3,16.7c-15.3,9.2 -28.6,20.7 -39.4,34.9c-7.4,9.9 -12.7,20.5 -17.4,31.9c-5,12.2 -10.3,22.6 -10.3,38c0,0.8 0,132.1 0,197.1c24.6,-0.1 49.2,-0.1 74.1,-0.2c0,-2.5 0,-4.3 0,-6.2c0,-57.8 0,-115.7 0,-173.5c0,-4.5 0.2,-9 1,-13.4c3.4,-17 11.8,-31 25.9,-41.1c13.7,-9.8 29,-14.1 46,-11.7c13.9,2 25.9,7.6 35.9,17.2c13.4,12.8 20.1,28.8 20.1,47.3c0.1,58.4 0,116.7 0,175.1c0,2 0.1,4 0.1,6c8.4,0.9 70,0.6 74,-0.3c0,-1.8 0,-3.7 0,-5.6c0.2,-58.9 0.2,-117.8 0.1,-176.7z"/>
   <path id="svg_3" d="m1088.6,300.1c-4.3,-0.3 -8.7,-0.3 -12.9,-1.2c-25.2,-5.5 -43.4,-26.5 -43.8,-52.9c-0.5,-37.9 -0.1,-75.7 -0.1,-113.6c0,-1.3 0.2,-2.6 0.4,-4.1c7.1,0 53.9,0.2 60.5,-0.2c1,-9.6 0.6,-62.8 -0.5,-66.6c-19.7,0 -39.5,0 -59.3,0c-0.2,0 -0.3,-0.1 -0.5,-0.2c-0.1,-0.1 -0.2,-0.3 -0.7,-0.8c0,-19.9 0,-40.1 0,-60.4c-24.7,0 -49.3,0 -74,0c0,1.9 0,3.8 0,5.7c0,79 0,158 0,237.1c0,6.4 0.1,12.8 0.9,19.2c1.6,12.8 5,25 10.4,36.7c7.5,16.3 17.7,30.4 31,42.4c12.6,11.4 27,19.9 42.9,25.8c8.9,3.3 18.2,5.2 27.6,6.5c8.5,1.2 16.8,0.5 25.4,0.9c0,-25 0,-49.3 0,-74.1c-2.5,-0.2 -4.9,-0.1 -7.3,-0.2z"/>
   <path id="svg_4" d="m491.1,58.9c-84.9,-22.2 -172.8,25.5 -197.5,114.1c-23.2,82.9 22.8,171.3 108.7,198c83.9,26 169.9,-19.8 198.9,-96.6c-28.7,0 -57.3,0 -85.6,0c-27.5,27.8 -59.7,36.2 -96.6,23.5c-24.9,-8.5 -45.8,-32.9 -49.6,-49.8c79.9,0 159.7,0 239.5,0c17,-80.4 -30.3,-166.4 -117.8,-189.2zm-121.4,123.2c9.2,-26.3 41.4,-56.1 84.8,-54c36.2,1.7 66.2,26.6 76,54c-53.9,0 -107.4,0 -160.8,0z"/>
   <path id="svg_5" d="m784.9,53.6c-89.6,0 -162.3,72.7 -162.3,162.3s72.7,162.3 162.3,162.3c35.9,0 69,-11.7 95.9,-31.4l0,26.1l66.4,0l0,-156.8l0,0c0,-0.1 0,-0.1 0,-0.2c0,-89.6 -72.6,-162.3 -162.3,-162.3zm0,249.6c-48.2,0 -87.3,-39.1 -87.3,-87.3c0,-48.2 39.1,-87.3 87.3,-87.3c48.2,0 87.3,39.1 87.3,87.3c0,48.2 -39.1,87.3 -87.3,87.3z"/>
   <path id="svg_6" d="m1255.2,53.8c-89.6,0 -162.2,72.6 -162.2,162.2s72.6,162.2 162.2,162.2c89.6,0 162.2,-72.6 162.2,-162.2s-72.7,-162.2 -162.2,-162.2zm0,249.6c-48.3,0 -87.4,-39.1 -87.4,-87.4s39.1,-87.4 87.4,-87.4s87.4,39.1 87.4,87.4s-39.2,87.4 -87.4,87.4z"/>
  </g>
  <text fill="#000000" stroke="#000" stroke-width="0" x="100" y="504.70518" id="svg_7" font-size="100" font-family="monospace" text-anchor="start" xml:space="preserve" font-weight="bold" font-style="normal">COMMUNITY BOTVAC APP</text>
 </g>
</svg>